<svg height="512pt" viewBox="-34 0 512 512" width="512pt" xmlns="http://www.w3.org/2000/svg"><path d="m221.867188 34.132812-191.265626 114.765626v229.511718l191.265626 99.457032 191.265624-99.457032v-229.511718zm0 0" fill="#4a7ca8"/><path d="m230.691406 13.824219c-1.902344.496093-3.910156.84375-6.152344.84375-3.671874 0-6.871093-.714844-9.617187-1.960938l-206.386719 123.828125 213.332032 128 213.332031-128zm0 0" fill="#2f5987"/><path d="m8.535156 136.535156v249.699219c2.917969 2.570313 5.023438 5.863281 6.21875 9.53125l207.113282 107.699219v-238.929688zm0 0" fill="#224668"/><path d="m435.199219 387.480469v-250.945313l-213.332031 128v238.929688l209.722656-109.054688c.800781-2.507812 2.015625-4.847656 3.609375-6.929687zm0 0" fill="#4a7ca8"/><g fill="#4d007e"><path d="m221.867188 273.066406c-1.519532 0-3.039063-.402344-4.386719-1.21875l-213.332031-128c-2.578126-1.539062-4.148438-4.320312-4.148438-7.3125 0-2.996094 1.570312-5.777344 4.148438-7.316406l213.332031-128c2.695312-1.621094 6.074219-1.621094 8.78125 0l213.332031 128c2.570312 1.539062 4.140625 4.320312 4.140625 7.316406 0 2.992188-1.570313 5.773438-4.140625 7.3125l-213.332031 128c-1.355469.816406-2.875 1.21875-4.394531 1.21875zm-196.746094-136.53125 196.746094 118.046875 196.742187-118.046875-196.742187-118.050781zm0 0"/><path d="m221.867188 512c-1.347657 0-2.695313-.324219-3.933594-.964844l-213.335938-110.933594c-2.824218-1.457031-4.597656-4.386718-4.597656-7.566406v-256c0-3.074218 1.65625-5.914062 4.328125-7.425781 2.667969-1.519531 5.953125-1.476563 8.589844.109375l213.335937 128c2.574219 1.539062 4.144532 4.320312 4.144532 7.316406v238.929688c0 2.988281-1.550782 5.746094-4.101563 7.296875-1.359375.820312-2.894531 1.238281-4.429687 1.238281zm-204.800782-124.644531 196.265625 102.058593v-220.042968l-196.265625-117.757813zm0 0"/><path d="m221.867188 512c-1.535157 0-3.074219-.417969-4.429688-1.238281-2.550781-1.542969-4.105469-4.308594-4.105469-7.296875v-238.929688c0-2.996094 1.570313-5.777344 4.148438-7.316406l213.332031-128c2.636719-1.585938 5.921875-1.628906 8.59375-.109375 2.671875 1.511719 4.328125 4.351563 4.328125 7.425781v256c0 3.179688-1.777344 6.097656-4.601563 7.566406l-213.332031 110.933594c-1.230469.648438-2.585937.964844-3.933593.964844zm8.53125-242.628906v220.050781l196.269531-102.058594v-235.761719zm204.800781 123.164062h.085937zm0 0"/><path d="m221.867188 38.398438c-4.710938 0-8.535157-3.820313-8.535157-8.53125v-21.332032c0-4.710937 3.824219-8.535156 8.535157-8.535156 4.710937 0 8.53125 3.824219 8.53125 8.535156v21.332032c0 4.710937-3.820313 8.53125-8.53125 8.53125zm0 0"/><path d="m221.867188 209.066406c-4.710938 0-8.535157-3.824218-8.535157-8.53125v-42.667968c0-4.710938 3.824219-8.535157 8.535157-8.535157 4.710937 0 8.53125 3.824219 8.53125 8.535157v42.667968c0 4.707032-3.820313 8.53125-8.53125 8.53125zm0-85.332031c-4.710938 0-8.535157-3.824219-8.535157-8.535156v-42.664063c0-4.710937 3.824219-8.535156 8.535157-8.535156 4.710937 0 8.53125 3.824219 8.53125 8.535156v42.664063c0 4.710937-3.820313 8.535156-8.53125 8.535156zm0 0"/><path d="m221.867188 273.066406c-4.710938 0-8.535157-3.824218-8.535157-8.53125v-21.335937c0-4.710938 3.824219-8.53125 8.535157-8.53125 4.710937 0 8.53125 3.820312 8.53125 8.53125v21.335937c0 4.707032-3.820313 8.53125-8.53125 8.53125zm0 0"/><path d="m203.578125 284.039062c-2.898437 0-5.722656-1.476562-7.320313-4.136718-2.421874-4.046875-1.117187-9.285156 2.925782-11.707032l18.296875-10.976562c4.042969-2.421875 9.285156-1.117188 11.707031 2.929688 2.425781 4.042968 1.117188 9.28125-2.925781 11.707031l-18.296875 10.972656c-1.371094.820313-2.890625 1.210937-4.386719 1.210937zm0 0"/><path d="m62.191406 368.886719c-2.902344 0-5.726562-1.476563-7.320312-4.136719-2.425782-4.046875-1.121094-9.285156 2.925781-11.707031l35.34375-21.214844c4.046875-2.425781 9.285156-1.117187 11.707031 2.925781 2.425782 4.046875 1.121094 9.285156-2.925781 11.707032l-35.34375 21.214843c-1.382813.820313-2.894531 1.210938-4.386719 1.210938zm70.699219-42.417969c-2.902344 0-5.726563-1.476562-7.324219-4.140625-2.421875-4.042969-1.117187-9.28125 2.929688-11.707031l35.34375-21.214844c4.046875-2.421875 9.285156-1.109375 11.707031 2.929688 2.425781 4.042968 1.117187 9.285156-2.925781 11.707031l-35.34375 21.214843c-1.382813.816407-2.894532 1.210938-4.386719 1.210938zm0 0"/><path d="m8.542969 401.066406c-2.902344 0-5.726563-1.476562-7.324219-4.136718-2.421875-4.046876-1.117188-9.285157 2.929688-11.710938l18.292968-10.972656c4.046875-2.433594 9.285156-1.117188 11.710938 2.925781 2.421875 4.046875 1.117187 9.285156-2.929688 11.710937l-18.292968 10.972657c-1.382813.820312-2.894532 1.210937-4.386719 1.210937zm0 0"/><path d="m240.152344 284.039062c-1.492188 0-3.011719-.390624-4.375-1.21875l-18.296875-10.972656c-4.042969-2.425781-5.351563-7.664062-2.925781-11.710937 2.421874-4.042969 7.660156-5.339844 11.707031-2.925781l18.296875 10.976562c4.042968 2.421875 5.347656 7.660156 2.925781 11.707031-1.605469 2.679688-4.429687 4.144531-7.332031 4.144531zm0 0"/><path d="m381.550781 368.878906c-1.492187 0-3.011719-.390625-4.386719-1.21875l-35.34375-21.207031c-4.046874-2.421875-5.351562-7.664063-2.925781-11.707031 2.421875-4.046875 7.660157-5.351563 11.707031-2.925782l35.34375 21.203126c4.046876 2.425781 5.351563 7.664062 2.925782 11.707031-1.601563 2.671875-4.425782 4.148437-7.320313 4.148437zm-70.699219-42.417968c-1.492187 0-3.011718-.394532-4.386718-1.222657l-35.351563-21.203125c-4.046875-2.425781-5.351562-7.664062-2.925781-11.707031 2.421875-4.054687 7.660156-5.359375 11.707031-2.929687l35.351563 21.207031c4.046875 2.421875 5.351562 7.664062 2.929687 11.707031-1.597656 2.671875-4.421875 4.148438-7.324219 4.148438zm0 0"/><path d="m435.191406 401.066406c-1.492187 0-3.011718-.390625-4.386718-1.21875l-18.292969-10.976562c-4.046875-2.421875-5.351563-7.660156-2.929688-11.707032 2.425781-4.042968 7.664063-5.351562 11.707031-2.925781l18.296876 10.972657c4.046874 2.425781 5.351562 7.664062 2.925781 11.707031-1.59375 2.671875-4.417969 4.148437-7.320313 4.148437zm0 0"/></g></svg>